<?xml version="1.0" standalone="no"?>
<!DOCTYPE svg PUBLIC "-//W3C//DTD SVG 20010904//EN"
 "http://www.w3.org/TR/2001/REC-SVG-20010904/DTD/svg10.dtd">
<svg version="1.0" xmlns="http://www.w3.org/2000/svg"
 width="1015.000000pt" height="318.000000pt" viewBox="0 0 1015.000000 318.000000"
 preserveAspectRatio="xMidYMid meet">

<g transform="translate(0.000000,318.000000) scale(0.100000,-0.100000)"
fill="#000000" stroke="none">
<path d="M600 3120 c-25 -5 -88 -9 -141 -9 -167 -2 -187 -20 -190 -179 -1 -54
-6 -106 -12 -117 -14 -30 -49 -55 -77 -55 -16 0 -35 -12 -52 -34 l-28 -35 0
-414 c0 -228 3 -429 6 -446 5 -23 18 -38 49 -56 23 -14 49 -25 58 -25 8 0 24
-12 35 -27 15 -22 19 -47 20 -123 1 -96 19 -165 45 -176 17 -6 174 -12 542
-22 160 -4 296 -11 303 -15 9 -6 12 -102 12 -423 l0 -414 -26 -10 c-33 -13
-305 -13 -338 0 l-25 9 -3 221 -3 221 -38 34 c-48 43 -81 49 -220 40 -62 -3
-164 -10 -227 -13 -124 -8 -157 -20 -178 -68 -8 -16 -12 -98 -12 -236 0 -195
2 -213 20 -244 12 -18 30 -36 41 -39 43 -14 89 -51 98 -80 5 -16 10 -68 11
-114 0 -54 6 -91 15 -104 23 -33 83 -51 180 -54 354 -12 732 -17 912 -13 l211
5 39 31 38 31 3 116 3 116 73 36 c110 54 106 34 106 528 0 386 -1 410 -20 446
-25 49 -65 81 -101 81 -48 0 -59 30 -59 152 l0 108 -34 38 -34 37 -399 3
c-251 3 -403 8 -410 14 -10 8 -13 105 -13 423 l0 412 25 11 c16 8 83 12 175
12 205 0 190 21 190 -260 l0 -220 40 -29 40 -29 251 -7 c281 -8 276 -9 327 65
21 32 22 41 22 248 0 198 -2 217 -20 247 -23 38 -52 59 -95 69 -60 15 -65 28
-65 153 l0 113 -32 35 -33 36 -480 4 c-264 2 -500 0 -525 -5z"/>
<path d="M2640 3120 c-25 -5 -85 -9 -135 -9 -71 -1 -97 -5 -123 -21 -43 -27
-52 -54 -52 -165 0 -133 -9 -151 -84 -161 -32 -4 -73 -43 -93 -87 -18 -40 -19
-2097 -1 -2115 7 -7 9 -12 5 -12 -4 0 1 -17 12 -38 16 -31 32 -44 85 -68 41
-18 67 -36 70 -49 3 -11 6 -61 6 -110 0 -107 9 -125 78 -156 38 -17 61 -20
121 -16 41 2 90 0 110 -5 20 -5 286 -8 592 -8 532 0 558 1 601 20 78 34 83 45
83 185 0 110 -2 127 -21 152 -48 65 -36 63 -545 70 -255 3 -472 10 -481 15
-17 8 -18 39 -18 423 0 399 1 415 19 425 12 6 132 10 319 10 l299 0 25 23 c43
40 48 60 48 190 0 123 0 124 -31 164 l-31 40 -97 6 c-53 3 -192 6 -310 7 -139
0 -219 5 -228 12 -10 8 -13 95 -13 423 l0 412 23 11 c14 7 180 12 489 15 436
5 470 6 500 24 44 25 57 67 57 185 1 122 -15 169 -66 193 -33 16 -95 18 -602
21 -311 2 -586 -1 -611 -6z"/>
<path d="M4540 3120 c-30 -4 -99 -8 -152 -9 -88 -1 -99 -3 -126 -26 -21 -17
-33 -39 -38 -68 -4 -23 -8 -665 -9 -1427 -1 -1324 0 -1386 17 -1412 34 -50 72
-62 198 -65 63 -1 169 -5 236 -9 116 -6 122 -5 171 19 37 19 54 35 62 58 8 23
11 385 11 1260 0 1103 2 1229 16 1243 13 13 42 16 164 16 142 0 150 -1 177
-24 l28 -24 -1 -1178 c0 -649 1 -1207 4 -1242 4 -62 4 -62 50 -90 43 -25 57
-27 162 -29 63 -1 164 -5 224 -9 99 -5 113 -4 152 16 24 11 53 33 64 47 20 26
20 35 20 1267 0 1415 8 1289 -88 1337 -29 14 -57 30 -62 35 -6 6 -12 57 -13
115 -3 114 -16 153 -62 183 -25 16 -76 18 -588 21 -309 2 -587 0 -617 -5z"/>
<path d="M6820 3120 c-25 -5 -88 -9 -141 -9 -124 -1 -164 -16 -178 -68 -6 -21
-11 -77 -11 -125 0 -131 -9 -144 -109 -153 -21 -2 -43 -14 -60 -31 l-26 -29
-3 -1243 c-1 -683 1 -1257 6 -1274 5 -22 20 -39 47 -55 36 -21 52 -23 155 -23
63 1 163 -2 221 -6 94 -5 111 -4 155 15 89 39 84 -2 84 668 l0 590 25 11 c41
19 299 16 336 -3 l30 -16 -2 -588 c-1 -540 0 -591 16 -615 10 -14 25 -26 34
-26 9 0 23 -6 30 -13 8 -8 51 -13 129 -14 64 -1 169 -5 232 -9 105 -6 120 -4
162 15 85 39 78 -88 78 1320 0 1244 0 1254 -20 1287 -15 24 -34 37 -73 50 -29
9 -58 21 -64 27 -9 6 -13 41 -13 108 0 123 -16 169 -67 193 -31 15 -87 17
-482 21 -245 2 -466 0 -491 -5z m505 -444 l24 -24 1 -388 c0 -481 22 -434
-198 -434 -131 0 -158 3 -174 17 -17 15 -18 41 -18 415 0 385 1 399 20 418 18
18 33 20 170 20 146 0 152 -1 175 -24z"/>
<path d="M8665 3120 c-27 -4 -93 -9 -146 -9 -104 -1 -139 -12 -167 -53 -16
-21 -17 -86 -15 -745 1 -456 -1 -724 -7 -728 -6 -4 -6 -14 1 -26 7 -15 9 -221
6 -687 -2 -367 0 -677 4 -690 6 -14 29 -31 66 -48 50 -22 72 -25 168 -25 60 0
164 -1 230 -2 118 -2 121 -2 165 28 24 17 47 41 51 55 4 14 7 577 8 1252 l1
1228 24 15 c35 23 317 18 341 -5 14 -14 15 -150 15 -1248 0 -704 4 -1242 9
-1255 15 -38 89 -61 206 -63 55 -1 156 -5 225 -9 116 -7 129 -6 167 13 23 12
51 33 62 48 l21 27 0 1246 0 1247 -30 41 c-23 31 -41 43 -75 52 -25 6 -49 19
-55 30 -5 11 -10 59 -10 108 0 65 -5 99 -19 130 -36 78 -13 75 -640 79 -306 1
-578 -1 -606 -6z"/>
</g>
</svg>
