<?xml version="1.0" standalone="no"?>
<svg xmlns:xlink="http://www.w3.org/1999/xlink" id="wave" style="transform:rotate(180deg); transition: 0.3s" viewBox="0 0 1440 100" version="1.1" xmlns="http://www.w3.org/2000/svg"><defs><linearGradient id="sw-gradient-0" x1="0" x2="0" y1="1" y2="0"><stop stop-color="rgba(241, 241, 241, 1)" offset="0%"/><stop stop-color="rgba(241, 241, 241, 1)" offset="100%"/></linearGradient></defs><path style="transform:translate(0, 0px); opacity:1" fill="url(#sw-gradient-0)" d="M0,20L48,16.7C96,13,192,7,288,18.3C384,30,480,60,576,65C672,70,768,50,864,38.3C960,27,1056,23,1152,23.3C1248,23,1344,27,1440,28.3C1536,30,1632,30,1728,28.3C1824,27,1920,23,2016,18.3C2112,13,2208,7,2304,10C2400,13,2496,27,2592,28.3C2688,30,2784,20,2880,23.3C2976,27,3072,43,3168,41.7C3264,40,3360,20,3456,20C3552,20,3648,40,3744,45C3840,50,3936,40,4032,36.7C4128,33,4224,37,4320,46.7C4416,57,4512,73,4608,75C4704,77,4800,63,4896,56.7C4992,50,5088,50,5184,46.7C5280,43,5376,37,5472,40C5568,43,5664,57,5760,60C5856,63,5952,57,6048,50C6144,43,6240,37,6336,38.3C6432,40,6528,50,6624,56.7C6720,63,6816,67,6864,68.3L6912,70L6912,100L6864,100C6816,100,6720,100,6624,100C6528,100,6432,100,6336,100C6240,100,6144,100,6048,100C5952,100,5856,100,5760,100C5664,100,5568,100,5472,100C5376,100,5280,100,5184,100C5088,100,4992,100,4896,100C4800,100,4704,100,4608,100C4512,100,4416,100,4320,100C4224,100,4128,100,4032,100C3936,100,3840,100,3744,100C3648,100,3552,100,3456,100C3360,100,3264,100,3168,100C3072,100,2976,100,2880,100C2784,100,2688,100,2592,100C2496,100,2400,100,2304,100C2208,100,2112,100,2016,100C1920,100,1824,100,1728,100C1632,100,1536,100,1440,100C1344,100,1248,100,1152,100C1056,100,960,100,864,100C768,100,672,100,576,100C480,100,384,100,288,100C192,100,96,100,48,100L0,100Z"/></svg>